<?xml version="1.0" standalone="no"?>
<!DOCTYPE svg PUBLIC "-//W3C//DTD SVG 20010904//EN"
 "http://www.w3.org/TR/2001/REC-SVG-20010904/DTD/svg10.dtd">
<svg version="1.0" xmlns="http://www.w3.org/2000/svg"
 width="542.000000pt" height="328.000000pt" viewBox="0 0 542.000000 328.000000"
 preserveAspectRatio="xMidYMid meet">

<g transform="translate(0.000000,328.000000) scale(0.100000,-0.100000)"
fill="#000000" stroke="none">
<path d="M0 1640 l0 -1640 2710 0 2710 0 0 1640 0 1640 -2710 0 -2710 0 0
-1640z m1545 1185 l0 -170 -139 -3 -138 -3 45 -34 c53 -40 100 -108 123 -177
24 -74 16 -196 -18 -271 -49 -104 -155 -186 -270 -207 -31 -6 -180 -9 -344 -8
l-289 3 0 170 0 170 164 3 163 3 -40 32 c-58 46 -98 100 -122 165 -31 81 -25
204 12 285 47 100 154 185 260 206 24 5 167 8 318 7 l275 -1 0 -170z m1200 0
l0 -170 -172 -3 -173 -2 -2 -373 -3 -372 -165 0 -165 0 -3 372 -2 373 -173 2
-172 3 -3 160 c-1 87 0 165 2 172 4 11 105 13 518 11 l513 -3 0 -170z m702
163 c17 -22 354 -999 351 -1016 -3 -15 -23 -17 -162 -20 -104 -2 -163 1 -170
8 -6 6 -20 39 -32 73 l-21 62 -133 0 -133 0 -17 -51 c-35 -101 -19 -94 -201
-94 -135 0 -161 2 -166 16 -5 13 289 876 338 992 l18 42 159 0 c116 0 162 -3
169 -12z m1277 -3 c70 -18 154 -72 197 -127 106 -133 106 -333 0 -466 -41 -53
-127 -109 -190 -125 l-51 -13 111 -132 c66 -79 109 -140 107 -150 -3 -15 -23
-17 -190 -20 l-187 -2 -103 124 c-57 69 -106 125 -110 125 -4 1 -9 -54 -10
-121 l-3 -123 -153 -3 c-116 -2 -154 0 -157 10 -8 21 20 1012 28 1026 13 19
633 17 711 -3z m-4054 -1372 c25 -72 48 -134 51 -138 3 -3 25 50 49 117 23 68
47 131 52 141 8 15 26 17 167 17 123 0 161 -3 170 -14 6 -7 27 -58 45 -112 62
-181 51 -178 105 -27 26 73 51 137 57 143 7 7 76 9 195 8 164 -3 184 -5 187
-20 3 -18 -334 -993 -351 -1015 -14 -18 -320 -18 -334 0 -6 6 -23 49 -38 95
-15 46 -30 80 -33 77 -4 -3 -20 -45 -37 -93 l-31 -87 -169 0 -169 0 -178 510
c-98 280 -176 515 -174 522 4 11 46 13 198 11 l193 -3 45 -132z m1727 125 c17
-22 354 -999 351 -1016 -3 -15 -23 -17 -162 -20 -104 -2 -163 1 -170 8 -6 6
-20 39 -32 73 l-21 62 -133 0 -133 0 -17 -51 c-35 -101 -19 -94 -201 -94 -135
0 -161 2 -166 16 -5 13 289 876 338 992 l18 42 159 0 c116 0 162 -3 169 -12z
m1327 -3 c70 -18 154 -72 197 -127 106 -133 106 -333 0 -466 -41 -53 -127
-109 -190 -125 l-51 -13 111 -132 c66 -79 109 -140 107 -150 -3 -15 -23 -17
-190 -20 l-187 -2 -103 124 c-57 69 -106 125 -110 125 -4 1 -9 -54 -10 -121
l-3 -123 -153 -3 c-116 -2 -154 0 -157 10 -8 21 20 1012 28 1026 13 19 633 17
711 -3z m1501 -160 l0 -170 -138 -3 -138 -3 59 -54 c85 -79 116 -151 116 -270
0 -77 -4 -99 -27 -150 -33 -71 -104 -147 -167 -180 -78 -40 -144 -46 -455 -43
l-290 3 0 170 0 170 163 3 163 3 -53 48 c-163 149 -167 397 -11 542 107 100
144 108 498 106 l280 -2 0 -170z m-4827 -1141 c28 -19 29 -67 2 -94 -14 -14
-33 -20 -65 -20 -45 0 -45 0 -45 -35 0 -28 -4 -35 -20 -35 -19 0 -20 7 -20
100 l0 100 63 0 c40 0 70 -5 85 -16z m692 -69 l0 -85 55 0 c42 0 55 -3 55 -15
0 -12 -16 -15 -80 -15 l-80 0 0 100 0 100 25 0 c25 0 25 -1 25 -85z m881 -17
l37 -98 -24 0 c-17 0 -25 7 -30 25 -5 21 -12 25 -45 25 -32 0 -41 -5 -51 -25
-10 -23 -48 -36 -48 -17 0 4 13 41 28 82 16 41 32 83 35 93 5 13 15 17 34 15
24 -3 31 -13 64 -100z m747 30 l42 -73 0 73 c0 65 2 72 20 72 19 0 20 -7 20
-100 0 -100 0 -100 -25 -100 -19 0 -32 14 -67 73 l-43 72 -3 -72 c-3 -65 -5
-73 -22 -73 -19 0 -20 7 -20 100 l0 100 28 0 c24 0 34 -10 70 -72z m882 57 c0
-12 -13 -15 -60 -15 -57 0 -60 -1 -60 -25 0 -24 3 -25 55 -25 42 0 55 -3 55
-15 0 -12 -13 -15 -55 -15 -54 0 -55 0 -55 -30 l0 -30 60 0 c47 0 60 -3 60
-15 0 -12 -16 -15 -85 -15 l-85 0 0 100 0 100 85 0 c69 0 85 -3 85 -15z m790
0 c0 -10 -11 -15 -35 -15 l-35 0 0 -85 c0 -84 0 -85 -25 -85 -25 0 -25 1 -25
85 l0 85 -30 0 c-20 0 -30 5 -30 15 0 12 17 15 90 15 73 0 90 -3 90 -15z m751
-4 c31 -25 17 -38 -24 -23 -41 15 -64 15 -72 2 -11 -17 13 -37 51 -43 68 -11
94 -57 54 -97 -32 -32 -127 -24 -152 14 -21 30 5 35 50 9 25 -14 35 -15 56 -5
35 16 24 40 -22 48 -53 9 -82 30 -82 59 0 51 93 75 141 36z"/>
<path d="M923 2931 c-93 -32 -176 -118 -204 -213 -5 -18 -10 -64 -10 -101 0
-159 118 -291 281 -314 46 -7 55 -12 55 -28 0 -19 -8 -20 -247 -23 l-248 -2 0
-125 0 -125 295 0 c332 0 354 4 440 75 79 65 116 146 116 258 0 159 -118 291
-281 314 -46 7 -55 12 -55 28 0 19 8 20 223 23 l222 2 0 125 0 125 -267 0
c-231 -1 -275 -3 -320 -19z"/>
<path d="M1750 2825 l0 -125 173 -2 172 -3 3 -372 2 -373 130 0 130 0 2 373 3
372 173 3 172 2 0 125 0 125 -480 0 -480 0 0 -125z"/>
<path d="M2982 2483 c-89 -258 -162 -471 -162 -475 0 -5 55 -8 123 -8 l122 0
25 73 25 72 165 0 164 0 26 -70 25 -70 123 -3 c67 -1 122 1 122 5 0 4 -73 217
-163 473 l-163 465 -134 3 -135 2 -163 -467z m357 80 c23 -65 47 -132 53 -149
21 -60 12 -65 -114 -62 -93 3 -113 6 -116 19 -1 8 20 81 49 162 66 189 72 190
128 30z"/>
<path d="M3246 2492 c-14 -42 -26 -80 -26 -85 0 -4 27 -7 60 -7 33 0 60 3 60
8 0 16 -55 162 -62 162 -3 0 -18 -35 -32 -78z"/>
<path d="M4046 2643 c-3 -169 -9 -383 -13 -475 l-6 -168 116 0 116 0 3 148 c3
122 6 147 18 147 8 0 70 -66 138 -147 l124 -148 139 0 c77 0 139 2 139 5 0 3
-47 62 -105 132 -59 70 -105 133 -103 142 2 11 18 18 53 22 128 16 240 109
276 231 5 18 10 64 10 101 0 120 -69 230 -179 284 l-57 28 -331 3 -331 3 -7
-308z m534 92 c46 -24 70 -62 70 -111 0 -36 -6 -51 -34 -82 l-34 -37 -159 0
-158 0 -3 109 c-1 61 0 116 2 123 8 20 277 18 316 -2z"/>
<path d="M4300 2625 l0 -75 128 0 c136 1 153 6 171 51 11 30 -8 83 -34 93 -9
3 -73 6 -141 6 l-124 0 0 -75z"/>
<path d="M359 1503 c38 -109 112 -321 165 -472 53 -151 96 -276 96 -277 0 -2
60 -4 134 -4 l133 0 43 120 c23 66 46 123 52 126 18 12 37 -20 75 -131 l39
-110 134 0 134 0 163 465 c90 256 163 468 163 473 0 4 -66 6 -147 5 l-146 -3
-55 -155 c-29 -85 -60 -162 -69 -170 -13 -13 -16 -13 -27 2 -6 9 -36 86 -66
172 l-54 157 -134 -3 -134 -3 -57 -165 c-41 -118 -62 -166 -74 -168 -20 -4
-23 3 -92 201 l-47 137 -149 0 -148 0 68 -197z"/>
<path d="M1932 1233 c-89 -258 -162 -471 -162 -475 0 -5 55 -8 123 -8 l122 0
25 73 25 72 165 0 164 0 26 -70 25 -70 123 -3 c67 -1 122 1 122 5 0 4 -73 217
-163 473 l-163 465 -134 3 -135 2 -163 -467z m357 80 c23 -65 47 -132 53 -149
21 -60 12 -65 -114 -62 -93 3 -113 6 -116 19 -1 8 20 81 49 162 66 189 72 190
128 30z"/>
<path d="M2196 1242 c-14 -42 -26 -80 -26 -85 0 -4 27 -7 60 -7 33 0 60 3 60
8 0 16 -55 162 -62 162 -3 0 -18 -35 -32 -78z"/>
<path d="M3046 1393 c-3 -170 -9 -383 -13 -475 l-6 -168 116 0 116 0 3 148 c3
122 6 147 18 147 8 0 70 -66 138 -147 l124 -148 139 0 c77 0 139 2 139 5 0 3
-47 62 -105 132 -59 70 -105 133 -103 142 2 11 18 18 53 22 128 16 240 109
276 231 18 62 12 164 -14 222 -28 61 -75 117 -122 146 -74 45 -112 50 -441 50
l-311 0 -7 -307z m534 92 c46 -24 70 -62 70 -111 0 -36 -6 -51 -34 -82 l-34
-37 -159 0 -158 0 -3 109 c-1 61 0 116 2 123 8 20 277 18 316 -2z"/>
<path d="M3300 1375 l0 -75 128 0 c136 1 153 6 171 51 11 30 -8 83 -34 93 -9
3 -73 6 -141 6 l-124 0 0 -75z"/>
<path d="M4620 1691 c-91 -28 -183 -112 -216 -196 -29 -76 -26 -185 7 -255 49
-103 143 -171 259 -187 46 -7 55 -12 55 -28 0 -19 -8 -20 -247 -23 l-248 -2 0
-126 0 -125 308 3 307 3 50 27 c65 34 129 101 156 163 83 189 -31 408 -231
445 -91 17 -92 18 -88 37 3 16 23 18 226 21 l222 2 0 125 0 125 -267 -1 c-148
0 -279 -4 -293 -8z"/>
<path d="M297 413 c-13 -12 -7 -54 8 -59 44 -17 93 28 59 53 -19 14 -56 17
-67 6z"/>
<path d="M1897 388 c-4 -14 -10 -33 -13 -42 -5 -12 0 -16 20 -16 29 0 31 11
12 55 l-13 30 -6 -27z"/>
</g>
</svg>
